<?xml version="1.0" encoding="UTF-8"?>
<svg width="105mm" height="105mm" version="1.1" viewBox="0 0 105 105" xmlns="http://www.w3.org/2000/svg">
 <g transform="translate(1.6257 -43.712)">
  <g transform="translate(6.2511 .93383)" fill="none" stroke="#888" stroke-width="6.365">
   <path d="m44.623 95.278-44.658-25.783"/>
   <path d="m44.623 146.84 1e-5 -51.566"/>
   <path d="m44.623 95.278 1e-5 -51.566"/>
   <path d="m89.281 69.495-44.658 25.783"/>
  </g>
  <g transform="translate(6.2511 .93383)" fill="#888" stroke-width=".26458" aria-label='"heel"'>
   <path d="m53.733 129.12-0.22221 2.992h-0.68213l-0.22221-2.992zm-1.9947 0-0.22221 2.992h-0.68213l-0.22221-2.992z"/>
   <path d="m60.384 137.16h-0.97151v-3.2866q0-0.39791-0.04651-0.74414-0.04651-0.3514-0.17053-0.54777-0.12919-0.21704-0.37207-0.32039-0.24288-0.10852-0.63045-0.10852-0.39791 0-0.83199 0.19637t-0.83199 0.50126v4.3098h-0.97151v-8.0408h0.97151v2.9094q0.45475-0.37723 0.94051-0.58911 0.48576-0.21187 0.99735-0.21187 0.93534 0 1.4263 0.56327 0.49092 0.56327 0.49092 1.6226z"/>
   <path d="m67.086 134.38h-4.253q0 0.53226 0.1602 0.93017 0.1602 0.39274 0.43925 0.64595 0.26872 0.24805 0.63562 0.37207 0.37207 0.12402 0.81648 0.12402 0.58911 0 1.1834-0.23254 0.59944-0.23771 0.85266-0.46509h0.05168v1.0594q-0.49092 0.2067-1.0025 0.34623-0.5116 0.13952-1.0749 0.13952-1.4366 0-2.2428-0.77514-0.80615-0.78031-0.80615-2.2117 0-1.4159 0.76998-2.2479 0.77514-0.83199 2.036-0.83199 1.1679 0 1.7983 0.68213 0.63562 0.68212 0.63562 1.9379zm-0.94568-0.74414q-0.0052-0.76481-0.38757-1.1834-0.37724-0.41858-1.1524-0.41858-0.78031 0-1.2454 0.45992-0.45992 0.45992-0.52193 1.142z"/>
   <path d="m73.391 134.38h-4.253q0 0.53226 0.1602 0.93017 0.1602 0.39274 0.43925 0.64595 0.26872 0.24805 0.63562 0.37207 0.37207 0.12402 0.81648 0.12402 0.58911 0 1.1834-0.23254 0.59944-0.23771 0.85266-0.46509h0.05168v1.0594q-0.49092 0.2067-1.0025 0.34623-0.5116 0.13952-1.0749 0.13952-1.4366 0-2.2428-0.77514-0.80615-0.78031-0.80615-2.2117 0-1.4159 0.76998-2.2479 0.77514-0.83199 2.036-0.83199 1.1679 0 1.7983 0.68213 0.63562 0.68212 0.63562 1.9379zm-0.94568-0.74414q-0.0052-0.76481-0.38757-1.1834-0.37724-0.41858-1.1524-0.41858-0.78031 0-1.2454 0.45992-0.45992 0.45992-0.52193 1.142z"/>
   <path d="m75.846 137.16h-0.97151v-8.0408h0.97151z"/>
   <path d="m80.801 129.12-0.22221 2.992h-0.68213l-0.22221-2.992zm-1.9947 0-0.22221 2.992h-0.68213l-0.22221-2.992z"/>
  </g>
  <g transform="translate(5.5196 3.8599)" fill="#888" stroke-width=".26458" aria-label='"toes"'>
   <path d="m57.391 51.944-0.22221 2.9921h-0.68213l-0.22221-2.9921zm-1.9947 0-0.22221 2.9921h-0.68213l-0.22221-2.9921z"/>
   <path d="m62.212 59.934q-0.27388 0.07235-0.59944 0.11886-0.32039 0.04651-0.57361 0.04651-0.88366 0-1.3436-0.47542t-0.45992-1.5244v-3.0696h-0.65629v-0.81648h0.65629v-1.6588h0.97151v1.6588h2.005v0.81648h-2.005v2.6303q0 0.45475 0.02067 0.71313 0.02067 0.25321 0.14469 0.47542 0.11369 0.2067 0.31006 0.30489 0.20154 0.09302 0.60978 0.09302 0.23771 0 0.49609-0.06718 0.25838-0.07235 0.37207-0.11886h0.05168z"/>
   <path d="m68.305 57.102q0 1.4108-0.72347 2.2272t-1.9379 0.81648q-1.2247 0-1.9482-0.81648-0.7183-0.81648-0.7183-2.2272t0.7183-2.2272q0.72347-0.82165 1.9482-0.82165 1.2144 0 1.9379 0.82165 0.72347 0.81648 0.72347 2.2272zm-1.0025 0q0-1.1214-0.43925-1.664-0.43925-0.54777-1.2196-0.54777-0.79065 0-1.2299 0.54777-0.43408 0.5426-0.43408 1.664 0 1.0852 0.43925 1.6485 0.43925 0.5581 1.2247 0.5581 0.77514 0 1.2144-0.55294 0.44442-0.5581 0.44442-1.6536z"/>
   <path d="m74.64 57.2h-4.253q0 0.53227 0.1602 0.93017 0.1602 0.39274 0.43925 0.64595 0.26872 0.24805 0.63562 0.37207 0.37207 0.12402 0.81648 0.12402 0.58911 0 1.1834-0.23254 0.59944-0.23771 0.85266-0.46509h0.05168v1.0594q-0.49092 0.2067-1.0025 0.34623t-1.0749 0.13953q-1.4366 0-2.2428-0.77514-0.80615-0.78031-0.80615-2.2117 0-1.4159 0.76998-2.2479 0.77514-0.83199 2.036-0.83199 1.1679 0 1.7983 0.68213 0.63562 0.68213 0.63562 1.9379zm-0.94568-0.74414q-0.0052-0.76481-0.38757-1.1834-0.37724-0.41858-1.1524-0.41858-0.78031 0-1.2454 0.45992-0.45992 0.45992-0.52193 1.142z"/>
   <path d="m80.237 58.321q0 0.79065-0.65629 1.2971-0.65112 0.50643-1.7828 0.50643-0.64079 0-1.1782-0.14986-0.53227-0.15503-0.894-0.3359v-1.0904h0.05168q0.45992 0.34623 1.0232 0.55294 0.56327 0.20154 1.08 0.20154 0.64079 0 1.0025-0.2067 0.36173-0.2067 0.36173-0.65112 0-0.34106-0.19637-0.51676-0.19637-0.1757-0.75447-0.29972-0.2067-0.04651-0.5426-0.10852-0.33073-0.06201-0.60461-0.13436-0.75964-0.20154-1.08-0.58911-0.31522-0.39274-0.31522-0.96118 0-0.35657 0.14469-0.67179 0.14986-0.31522 0.44958-0.56327 0.28939-0.24288 0.7338-0.3824 0.44958-0.14469 1.0025-0.14469 0.51676 0 1.0439 0.12919 0.53226 0.12402 0.88366 0.30489v1.0387h-0.05168q-0.37207-0.27388-0.90434-0.45992-0.53226-0.1912-1.0439-0.1912-0.53226 0-0.89917 0.20671-0.3669 0.20154-0.3669 0.60461 0 0.35657 0.22221 0.53743 0.21704 0.18087 0.7028 0.29456 0.26872 0.06201 0.59944 0.12402 0.3359 0.06201 0.5581 0.11369 0.67696 0.15503 1.0439 0.53226 0.3669 0.3824 0.3669 1.0129z"/>
   <path d="m84.66 51.944-0.22221 2.9921h-0.68213l-0.22221-2.9921zm-1.9947 0-0.22221 2.9921h-0.68213l-0.22221-2.9921z"/>
  </g>
 </g>
</svg>
